<?xml version="1.0" encoding="UTF-8"?>
<svg width="443px" height="117px" viewBox="0 0 443 117" version="1.1" xmlns="http://www.w3.org/2000/svg" xmlns:xlink="http://www.w3.org/1999/xlink">
    <!-- Generator: Sketch 41.2 (35397) - http://www.bohemiancoding.com/sketch -->
    <title>Artboard</title>
    <desc>Created with Sketch.</desc>
    <defs></defs>
    <g id="Page-1" stroke="none" stroke-width="1" fill="none" fill-rule="evenodd">
        <g id="Artboard">
            <g id="botmaster_1">
                <g id="Logo">
                    <g id="Page-1">
                        <g id="Logo">
                            <g id="BOTMASTER" transform="translate(143.000000, 44.000000)" fill="#666666">
                                <path d="M0.416,0.4 L0.416,34 L15.344,34 C22.928,34 27.584,30.544 27.584,24.784 C27.584,20.272 24.896,17.056 20.384,16.288 C24.032,15.424 26.288,12.592 26.288,8.8 C26.288,3.568 21.968,0.4 15.008,0.4 L0.416,0.4 Z M6.08,5.44 L14.72,5.44 C18.32,5.44 20.48,6.976 20.48,9.808 C20.48,12.64 18.32,14.32 14.72,14.32 L6.08,14.32 L6.08,5.44 Z M6.08,19.312 L14.72,19.312 C19.136,19.312 21.776,21.088 21.776,24.064 C21.776,27.232 19.136,28.96 14.72,28.96 L6.08,28.96 L6.08,19.312 Z M49.328,0.256 C39.296,0.256 31.52,7.552 31.52,17.2 C31.52,26.8 39.296,34.24 49.328,34.24 C59.36,34.24 67.136,26.8 67.136,17.2 C67.136,7.6 59.36,0.256 49.328,0.256 Z M49.376,5.344 C55.952,5.344 61.328,10.528 61.328,17.2 C61.328,23.872 55.952,29.152 49.376,29.152 C42.8,29.152 37.28,23.872 37.28,17.2 C37.28,10.528 42.752,5.344 49.376,5.344 Z M95.456,5.488 L95.456,0.4 L68.528,0.4 L68.528,5.488 L79.136,5.488 L79.136,34 L84.8,34 L84.8,5.488 L95.456,5.488 Z M135.824,34 L135.824,0.4 L129.152,0.4 L118.112,22.72 L107.024,0.4 L100.304,0.4 L100.304,34 L105.632,34 L105.632,8.896 L116.24,30.496 L119.936,30.496 L130.544,8.896 L130.592,34 L135.824,34 Z M166.4,26.416 L169.616,34 L175.664,34 L160.976,0.4 L155.168,0.4 L140.336,34 L146.24,34 L149.456,26.416 L166.4,26.416 Z M164.24,21.376 L151.568,21.376 L157.904,6.448 L164.24,21.376 Z M190.88,0.16 C183.584,0.16 178.64,3.76 178.64,9.52 C178.64,21.472 196.784,17.296 196.784,24.784 C196.784,27.376 194.432,28.864 190.496,28.864 C186.896,28.864 182.576,27.136 179.12,23.968 L176.672,28.864 C180.128,32.032 185.12,34.192 190.4,34.192 C197.792,34.192 203.072,30.496 203.072,24.496 C203.12,12.4 184.976,16.336 184.976,8.992 C184.976,6.736 187.136,5.488 190.448,5.488 C192.992,5.488 196.64,6.4 200.288,8.608 L202.64,3.616 C199.52,1.552 195.248,0.16 190.88,0.16 Z M232.64,5.488 L232.64,0.4 L205.712,0.4 L205.712,5.488 L216.32,5.488 L216.32,34 L221.984,34 L221.984,5.488 L232.64,5.488 Z M261.488,5.488 L261.488,0.4 L237.488,0.4 L237.488,34 L262.064,34 L262.064,28.912 L243.152,28.912 L243.152,19.648 L259.568,19.648 L259.568,14.56 L243.152,14.56 L243.152,5.488 L261.488,5.488 Z M290.288,34 L296.72,34 L289.184,22.768 C293.648,21.04 296.144,17.248 296.144,11.872 C296.144,4.576 291.2,0.4 282.608,0.4 L268.976,0.4 L268.976,34 L274.64,34 L274.64,23.872 L282.608,23.872 C283.136,23.872 283.664,23.872 284.144,23.824 L290.288,34 Z M274.64,18.784 L274.64,5.488 L282.608,5.488 C287.792,5.488 290.768,7.6 290.768,12.016 C290.768,16.576 287.792,18.784 282.608,18.784 L274.64,18.784 Z"></path>
                            </g>
                            <g id="Robot">
                                <g id="head" transform="translate(0.000000, 39.000000)">
                                    <g id="Rectangle" fill="#666666">
                                        <path d="M19.8867188,9.94140625 C46.3867188,-3.30859375 67.8205396,-2.93758496 91.4335938,9.94140625 C115.046648,22.8203975 108,58 108,58 L2,58 C2,58 -6.61328125,23.1914063 19.8867188,9.94140625 Z" id="path-1"></path>
                                    </g>
                                    <g id="right-eye" transform="translate(66.000000, 21.000000)">
                                        <circle id="Oval-2" fill="#FFFFFF" cx="13.5" cy="13.5" r="13.5"></circle>
                                        <circle id="Oval-3" fill="#666666" cx="13.5" cy="13.5" r="6.5"></circle>
                                    </g>
                                    <g id="left-eye" transform="translate(16.000000, 21.000000)">
                                        <circle id="Oval-2" fill="#FFFFFF" cx="13.5" cy="13.5" r="13.5"></circle>
                                        <circle id="Oval-3" fill="#666666" cx="13.5" cy="13.5" r="6.5"></circle>
                                    </g>
                                </g>
                                <rect id="Rectangle-2" fill="#666666" x="17" y="109" width="77" height="8" rx="4"></rect>
                                <rect id="Rectangle-1" fill="#666666" x="9" y="99" width="92" height="8" rx="4"></rect>
                                <g id="antena" transform="translate(38.000000, 0.000000)" stroke="#666666">
                                    <path d="M12.9133407,13.7560024 C12.9133407,13.7560024 14.7317466,22.3071438 14.7317466,26.2560024 C14.7317466,30.6404771 12.9133407,38.7560024 12.9133407,38.7560024" id="Line" stroke-width="7" transform="translate(13.822544, 26.256002) rotate(-13.000000) translate(-13.822544, -26.256002) "></path>
                                    <circle id="Oval-4" fill="#666666" cx="7" cy="7" r="7"></circle>
                                </g>
                            </g>
                        </g>
                    </g>
                </g>
            </g>
        </g>
    </g>
</svg>